<svg width="262" height="262" viewBox="0 0 262 262" fill="none" xmlns="http://www.w3.org/2000/svg">
<mask id="mask0_3312_218" style="mask-type:luminance" maskUnits="userSpaceOnUse" x="0" y="0" width="262" height="262">
<path d="M0 0H262V262H0V0Z" fill="white"/>
</mask>
<g mask="url(#mask0_3312_218)">
<path d="M256.133 139.926C260.606 167.562 250.396 188.018 246.919 194.744C234.163 219.403 211.474 232.601 192.576 238.576C170.092 245.685 150.359 242.151 122.749 229.658C97.5959 218.276 69.2762 253.508 40.6035 207.027C-7.3306 129.323 234.837 8.38241 256.133 139.926Z" fill="#C2DAFC"/>
<mask id="mask1_3312_218" style="mask-type:alpha" maskUnits="userSpaceOnUse" x="34" y="81" width="224" height="162">
<path d="M256.133 139.926C260.606 167.561 250.396 188.017 246.919 194.743C234.163 219.403 211.474 232.6 192.576 238.576C170.092 245.684 150.359 242.151 122.749 229.658C97.5959 218.276 69.2762 253.508 40.6035 207.026C-7.3306 129.323 234.837 8.38192 256.133 139.926Z" fill="#F3F3F3"/>
</mask>
<g mask="url(#mask1_3312_218)">
<path d="M54.2879 151.84C62.7144 155.906 63.1807 155.913 72.7026 156.073C87.4819 155.789 101.248 148.63 105.379 136.727C106.348 134.343 101.842 132.126 100.489 134.346C96.1223 141.82 83.2522 147.914 72.3277 147.409C65.6622 146.679 66.6588 146.121 60.9717 142.504C52.5872 136.999 45.3512 147.04 54.2879 151.84Z" fill="#5677EA"/>
</g>
<mask id="mask2_3312_218" style="mask-type:alpha" maskUnits="userSpaceOnUse" x="34" y="81" width="224" height="162">
<path d="M256.133 139.926C260.606 167.561 250.396 188.017 246.919 194.743C234.163 219.403 211.474 232.6 192.576 238.576C170.092 245.684 150.359 242.151 122.749 229.658C97.5959 218.276 69.2762 253.508 40.6035 207.026C-7.3306 129.323 234.837 8.38192 256.133 139.926Z" fill="#F3F3F3"/>
</mask>
<g mask="url(#mask2_3312_218)">
<path d="M63.4961 177.219C65.7308 191.344 68.7389 206.338 70.9717 220.473C71.3686 223.504 71.7654 228.229 72.0872 231.307C72.1969 232.339 72.3072 233.38 72.4182 234.431C76.7009 235.426 80.9508 235.482 85.1622 235.07C85.6084 230.722 86.0765 226.032 86.3526 222.906C87.1701 206.863 86.2173 190.892 85.2957 174.901C83.8529 160.486 61.6108 162.811 63.4961 177.219Z" fill="#06113C"/>
</g>
<mask id="mask3_3312_218" style="mask-type:alpha" maskUnits="userSpaceOnUse" x="34" y="81" width="224" height="162">
<path d="M256.133 139.926C260.606 167.561 250.396 188.017 246.919 194.743C234.163 219.403 211.474 232.6 192.576 238.576C170.092 245.684 150.359 242.151 122.749 229.658C97.5959 218.276 69.2762 253.508 40.6035 207.026C-7.3306 129.323 234.837 8.38192 256.133 139.926Z" fill="#F3F3F3"/>
</mask>
<g mask="url(#mask3_3312_218)">
<path d="M51.0754 177.443C51.9897 192.767 54.2682 208.556 54.7803 223.943C59.2952 228.543 63.7883 231.438 68.2539 233.156L68.3581 232.631C72.2074 214.333 72.3483 195.451 73.0011 176.872C72.8109 162.395 50.45 162.934 51.0754 177.443Z" fill="#2E395B"/>
</g>
<path d="M63.7257 118.202C49.1092 116.412 44.2212 129.355 43.5062 142.592C42.8113 155.439 46.0553 168.448 47.8621 176.179C51.993 193.862 88.5206 191.375 86.7962 170.337C85.8617 158.949 85.3534 152.291 80.6555 139.939C75.8699 127.342 70.8374 119.078 63.7257 118.202Z" fill="#599BE9"/>
<path d="M61.2464 107.563L56.7949 118.782C55.1559 123.409 62.5761 125.382 63.659 120.603L65.8169 109.508C66.3981 106.603 62.2903 104.803 61.2464 107.563Z" fill="#EDB99D"/>
<path d="M61.904 99.7993C62.5711 101.22 64.3138 101.854 65.7967 101.214C67.2795 100.575 67.9408 98.9057 67.2737 97.485C66.6066 96.0641 64.8639 95.4305 63.381 96.0696C63.3794 96.0704 63.3776 96.0713 63.3758 96.072C61.8953 96.7113 61.236 98.3795 61.9034 99.7981C61.9036 99.7984 61.9038 99.7988 61.904 99.7993Z" fill="#2B2B47"/>
<path d="M52.7451 109.184C63.11 121.446 74.741 111.155 65.9933 99.7474C56.7955 88.1961 43.5732 96.5477 52.7451 109.184Z" fill="#EDB99D"/>
<path d="M52.6963 95.9046C55.8717 94.3063 59.6058 94.4182 61.6251 95.8075C64.4548 97.7597 64.341 101.838 58.44 103.805C54.3816 105.156 54.807 108.114 58.6502 112.694C59.4436 113.632 58.6175 114.496 58.4232 114.463C56.7857 115.091 56.4596 113.133 55.6225 112.893C54.5706 112.599 53.3458 112.905 51.9983 111.698C51.1597 110.943 51.3741 109.192 50.8617 108.76C47.6585 105.947 49.0377 98.5707 52.6963 95.9046Z" fill="#2B2B47"/>
<path d="M49.5826 96.8359C45.8855 101 47.5759 106.657 50.852 108.761C54.0167 106.222 55.6625 104.571 57.7842 102.125C59.6982 99.8624 61.4007 97.4429 62.8723 94.8946C59.1256 91.2347 53.4275 92.503 49.5826 96.8359Z" fill="#132B96"/>
<path d="M62.8304 94.8469C64.9958 94.0337 66.539 93.7326 67.4844 93.4495C68.9089 93.0273 69.0224 94.1315 67.9215 95.0929C67.0711 95.8241 66.1581 96.4852 65.1918 97.0695C63.5266 98.0921 61.7952 99.2224 59.2748 100.296L62.8304 94.8469Z" fill="#2D68AD"/>
<path d="M54.1873 108.907C55.2562 110.066 56.9004 110.21 57.8493 109.237C58.7983 108.263 58.7129 106.526 57.6459 105.365C56.5788 104.205 54.9328 104.062 53.9838 105.037C53.0349 106.012 53.1166 107.746 54.1873 108.907Z" fill="#EDB99D"/>
<path d="M48.9533 135.571C40.5806 132.036 31.9743 128.157 26.3242 120.778C18.2424 109.224 21.5011 93.2643 28.6238 82.0166C30.6255 78.9497 35.3728 81.3589 33.7475 84.5889C29.8508 93.7521 27.2319 106.198 33.9853 114.428C38.4728 119.126 46.7018 121.421 53.111 123.134C62.7065 125.546 58.2576 138.939 48.9533 135.571Z" fill="#4A90E2"/>
<path d="M104.853 128.796C103.184 128.779 102.293 129.089 101.745 130.01C101.379 130.616 100.613 132.551 101.132 133.679C102.619 136.91 106.73 136.226 108.112 132.764C109.204 130.037 109.637 128.849 104.853 128.796Z" fill="#4A90E2"/>
<path d="M26.7818 79.5175C26.2776 78.0943 26.5296 72.114 27.9071 71.3885C28.9713 71.3098 30.283 75.1065 30.9419 76.5043C31.4674 77.6027 32.1444 78.6302 32.7597 79.677C33.2616 80.5394 33.9728 81.5519 33.8795 82.5764C33.779 83.7868 32.5872 85.1451 31.2129 84.8907C29.3662 84.3199 27.4301 81.2277 26.7818 79.5175Z" fill="#FFD2B7"/>
<mask id="mask4_3312_218" style="mask-type:luminance" maskUnits="userSpaceOnUse" x="82" y="47" width="91" height="165">
<path d="M82.9453 48.1885L171.501 47.8795L172.07 211.017L83.5145 211.326L82.9453 48.1885Z" fill="white"/>
</mask>
<g mask="url(#mask4_3312_218)">
<path d="M87.2444 61.1329L87.7379 202.562C87.7509 206.001 90.5501 208.779 93.9899 208.766C93.9939 208.766 93.9981 208.766 94.0021 208.766L161.011 208.533C164.451 208.525 167.234 205.731 167.226 202.291C167.226 202.289 167.226 202.286 167.226 202.284L166.733 60.8555C166.72 57.4115 163.918 54.6299 160.474 54.6419L93.4652 54.8757C90.0204 54.8847 87.2354 57.6848 87.2444 61.1295L87.2444 61.1329Z" fill="white"/>
<path d="M126.98 59.0287C127.632 59.0254 128.158 58.4942 128.155 57.8421C128.151 57.1901 127.62 56.664 126.968 56.6673C126.316 56.6706 125.79 57.2019 125.793 57.8539C125.794 58.504 126.323 59.0302 126.973 59.0288C126.975 59.0288 126.978 59.0287 126.98 59.0287Z" fill="white"/>
<path d="M163.097 193.36L162.64 62.4408C162.636 61.4106 161.798 60.5783 160.768 60.5819L92.6133 60.8197C91.5827 60.8233 90.7501 61.6611 90.7526 62.6916L91.2094 193.61C91.213 194.642 92.0519 195.475 93.0831 195.471L161.238 195.233C162.268 195.23 163.1 194.392 163.097 193.361L163.097 193.36Z" fill="#C2DAFC"/>
<path d="M95.909 65.4077L157.618 65.1924C158.39 65.1897 159.018 65.8132 159.021 66.5849L159.286 142.72C159.289 143.492 158.665 144.119 157.894 144.122L96.1844 144.337C95.4128 144.34 94.7849 143.717 94.7822 142.945L94.5166 66.8117C94.5129 66.04 95.1356 65.4115 95.9073 65.4077L95.909 65.4077Z" fill="#C2DAFC"/>
<path d="M163.091 193.361L162.92 144.142L91.0273 144.393L91.1991 193.612C91.2016 194.642 92.0391 195.475 93.0693 195.472C93.0722 195.472 93.075 195.472 93.078 195.472L161.233 195.234C162.263 195.231 163.095 194.393 163.091 193.363L163.091 193.361Z" fill="#C2DAFC"/>
<path d="M96.1024 153.51L123.902 153.413C124.611 153.41 125.188 153.983 125.19 154.692L125.288 182.604C125.29 183.312 124.718 183.888 124.01 183.89L96.2087 183.987C95.5006 183.99 94.9246 183.418 94.9222 182.71L94.8248 154.798C94.8223 154.09 95.3941 153.513 96.1024 153.51Z" fill="#C2DAFC"/>
<path d="M112.811 170.991C112.066 171.03 111.299 171.436 110.736 172.202C110.269 172.807 110.059 173.563 110.147 174.313L109.926 174.159C108.347 172.995 107.022 171.539 106.028 169.875C105.12 168.416 104.491 166.812 104.168 165.138C104.841 165.58 105.669 165.745 106.467 165.596C107.418 165.436 108.129 164.945 108.492 164.311L107.046 156.407C106.373 155.976 105.55 155.82 104.759 155.975C104.105 156.074 103.503 156.378 103.045 156.841C100.662 158.912 99.903 161.915 100.297 165.077C100.576 167.312 101.454 169.655 102.74 171.764C104.027 173.872 105.728 175.766 107.652 177.145C110.497 179.18 113.859 180.114 117.21 179.041C117.904 178.862 118.51 178.449 118.918 177.876C119.406 177.254 119.62 176.469 119.513 175.694L112.811 170.991Z" fill="#C2DAFC"/>
<path d="M159.839 137.118L151.28 137.147L151.307 144.861L149.328 144.868L149.302 137.154L127.832 137.229L127.859 144.943L125.298 144.951L125.271 137.238L104.66 137.31L104.687 145.023L101.915 145.033L101.889 137.32L93.2793 137.35L93.2723 135.364L101.882 135.334L101.833 121.376L93.2236 121.406L93.2167 119.42L101.826 119.39L101.73 91.8998L93.1051 91.9299L93.0961 89.3693L101.721 89.3392L101.637 65.1428L104.414 65.1331L104.498 89.3295L117.162 89.2853L117.171 91.8459L104.507 91.8901L104.603 119.381L125.214 119.309L125.171 107.054L127.732 107.045L127.774 119.3L149.239 119.225L149.143 91.7344L135.254 91.7828L135.245 89.2222L149.134 89.1738L149.05 64.9773L151.034 64.9704L151.118 89.1668L159.677 89.137L159.686 91.6976L151.127 91.7274L151.223 119.218L159.782 119.188L159.789 121.174L151.23 121.204L151.279 135.162L159.837 135.132L159.844 137.118L159.839 137.118ZM125.055 75.1813L127.615 75.1724L127.58 65.0522L125.019 65.0612L125.055 75.1813ZM149.246 121.209L127.776 121.284L127.825 135.242L149.295 135.167L149.246 121.211L149.246 121.209ZM104.659 135.324L125.269 135.252L125.221 121.295L104.61 121.367L104.659 135.324Z" fill="#C2DAFC"/>
<path d="M126.964 75.0144C116.927 74.8861 112.995 84.7263 115.341 90.5871L121.704 106.465C122.703 108.955 123.816 111.348 126.499 111.382C129.182 111.417 130.356 109.052 131.418 106.589L138.185 90.8791C140.682 85.0854 137.003 75.1427 126.964 75.0144ZM126.909 79.3248C131.153 79.384 134.546 82.8722 134.487 87.1164C134.427 91.3604 130.939 94.7532 126.695 94.694C122.454 94.6349 119.063 91.1519 119.117 86.9112C119.171 82.667 122.656 79.2705 126.9 79.3247C126.903 79.3248 126.906 79.3248 126.909 79.3248Z" fill="#C2DAFC"/>
<mask id="mask5_3312_218" style="mask-type:luminance" maskUnits="userSpaceOnUse" x="141" y="159" width="29" height="6">
<path d="M167.01 159.857L144.129 159.937C142.778 159.942 141.687 161.041 141.692 162.391C141.697 163.742 142.795 164.833 144.146 164.828L167.027 164.748C168.378 164.743 169.469 163.645 169.464 162.294C169.459 160.944 168.361 159.853 167.01 159.857Z" fill="white"/>
</mask>
<g mask="url(#mask5_3312_218)">
<path d="M154.54 161.364L133.816 161.436C133.378 161.434 133.021 161.787 133.018 162.225C133.018 162.227 133.018 162.23 133.018 162.232L133.021 162.897C133.023 163.336 133.381 163.69 133.82 163.688C133.821 163.688 133.822 163.688 133.823 163.688L154.548 163.615C154.983 163.614 155.334 163.26 155.333 162.825C155.333 162.823 155.333 162.821 155.332 162.82L155.33 162.147C155.329 161.713 154.975 161.362 154.541 161.364L154.54 161.364Z" fill="#C2DAFC"/>
</g>
<mask id="mask6_3312_218" style="mask-type:luminance" maskUnits="userSpaceOnUse" x="146" y="159" width="28" height="6">
<path d="M171.338 159.843L148.457 159.923C147.107 159.927 146.016 161.026 146.02 162.376C146.025 163.727 147.124 164.818 148.474 164.813L171.355 164.733C172.706 164.729 173.797 163.63 173.792 162.28C173.787 160.929 172.689 159.838 171.338 159.843Z" fill="white"/>
</mask>
<g mask="url(#mask6_3312_218)">
<g opacity="0.3">
<path d="M154.547 161.364L133.823 161.437C133.386 161.434 133.028 161.788 133.026 162.225C133.026 162.228 133.026 162.23 133.026 162.232L133.029 162.898C133.031 163.337 133.389 163.691 133.828 163.688C133.829 163.688 133.83 163.688 133.831 163.688L154.555 163.616C154.99 163.614 155.342 163.26 155.34 162.825C155.34 162.824 155.34 162.822 155.34 162.82L155.338 162.148C155.336 161.714 154.983 161.363 154.549 161.364L154.547 161.364Z" fill="#C2DAFC"/>
</g>
</g>
<mask id="mask7_3312_218" style="mask-type:luminance" maskUnits="userSpaceOnUse" x="140" y="165" width="29" height="6">
<path d="M166.147 165.677L143.266 165.757C141.915 165.761 140.824 166.86 140.829 168.21C140.834 169.561 141.932 170.652 143.283 170.647L166.164 170.567C167.514 170.563 168.605 169.464 168.601 168.114C168.596 166.763 167.497 165.672 166.147 165.677Z" fill="white"/>
</mask>
<g mask="url(#mask7_3312_218)">
<path d="M154.567 167.026L133.843 167.098C133.405 167.096 133.048 167.449 133.046 167.887C133.046 167.889 133.046 167.891 133.046 167.892L133.048 168.567C133.05 169.004 133.406 169.358 133.844 169.357C133.846 169.357 133.849 169.357 133.851 169.357L154.575 169.284C155.009 169.284 155.361 168.931 155.36 168.497C155.36 168.494 155.36 168.492 155.36 168.489L155.358 167.814C155.358 167.379 155.006 167.026 154.571 167.026C154.569 167.026 154.568 167.026 154.567 167.026Z" fill="#C2DAFC"/>
</g>
<mask id="mask8_3312_218" style="mask-type:luminance" maskUnits="userSpaceOnUse" x="146" y="165" width="28" height="6">
<path d="M171.358 165.641L148.477 165.721C147.126 165.726 146.035 166.824 146.04 168.175C146.044 169.525 147.143 170.616 148.494 170.612L171.375 170.532C172.725 170.527 173.816 169.428 173.812 168.078C173.807 166.727 172.708 165.636 171.358 165.641Z" fill="white"/>
</mask>
<g mask="url(#mask8_3312_218)">
<g opacity="0.2">
<path d="M154.567 167.026L133.843 167.098C133.405 167.096 133.048 167.449 133.046 167.887C133.046 167.888 133.046 167.89 133.046 167.892L133.048 168.566C133.05 169.004 133.406 169.358 133.844 169.356C133.846 169.356 133.849 169.356 133.851 169.356L154.575 169.284C155.009 169.283 155.361 168.931 155.36 168.497C155.36 168.494 155.36 168.491 155.36 168.488L155.358 167.814C155.358 167.379 155.006 167.026 154.571 167.026C154.569 167.026 154.568 167.026 154.567 167.026Z" fill="#C2DAFC"/>
</g>
</g>
<mask id="mask9_3312_218" style="mask-type:luminance" maskUnits="userSpaceOnUse" x="140" y="171" width="29" height="6">
<path d="M166.166 171.301L143.285 171.381C141.935 171.386 140.844 172.484 140.848 173.835C140.853 175.185 141.952 176.276 143.302 176.272L166.183 176.192C167.534 176.187 168.625 175.089 168.62 173.738C168.615 172.388 167.517 171.297 166.166 171.301Z" fill="white"/>
</mask>
<g mask="url(#mask9_3312_218)">
<path d="M142.439 172.906L133.866 172.936C133.427 172.935 133.071 173.29 133.069 173.728C133.069 173.73 133.069 173.731 133.069 173.732L133.072 174.404C133.073 174.843 133.43 175.198 133.869 175.196C133.871 175.196 133.873 175.196 133.874 175.196L142.447 175.166C142.887 175.168 143.244 174.812 143.246 174.372C143.246 174.371 143.246 174.37 143.246 174.369L143.243 173.693C143.239 173.254 142.88 172.902 142.441 172.906C142.44 172.906 142.439 172.906 142.439 172.906Z" fill="#C2DAFC"/>
</g>
</g>
</g>
<path d="M179.909 121.918V134.144C179.909 136.072 178.344 137.638 176.416 137.638H100.611C98.6826 137.638 97.1172 136.072 97.1172 134.144V121.918C97.1172 119.99 98.6826 118.424 100.611 118.424H176.416C178.344 118.424 179.909 119.99 179.909 121.918Z" fill="white"/>
<path d="M117.1 129.49C117.1 126.374 112.566 127.362 112.566 125.589C112.566 124.867 113.085 124.525 113.782 124.551C114.542 124.563 115.01 125.019 115.048 125.602H116.999C116.885 124.006 115.643 123.082 113.832 123.082C112.009 123.082 110.717 124.044 110.717 125.64C110.704 128.844 115.264 127.692 115.264 129.604C115.264 130.237 114.77 130.681 113.934 130.681C113.11 130.681 112.642 130.212 112.591 129.503H110.691C110.717 131.174 112.135 132.137 113.972 132.137C115.985 132.137 117.1 130.883 117.1 129.49Z" fill="#2F419F"/>
<path d="M118.855 129.869C118.855 131.477 119.755 132.047 121.097 132.047H122.212V130.552H121.388C120.831 130.552 120.641 130.35 120.641 129.881V126.487H122.212V125.031H120.641V123.295H118.855V125.031H118.02V126.487H118.855V129.869Z" fill="#2F419F"/>
<path d="M128.514 128.54C128.514 129.87 127.628 130.605 126.652 130.605C125.703 130.605 124.803 129.845 124.803 128.515C124.803 127.185 125.703 126.476 126.652 126.476C127.628 126.476 128.514 127.21 128.514 128.54ZM122.992 128.515C122.992 130.706 124.411 132.162 126.184 132.162C127.298 132.162 128.096 131.631 128.514 131.023V132.048H130.3V125.032H128.514V126.033C128.096 125.45 127.324 124.918 126.196 124.918C124.411 124.918 122.992 126.324 122.992 128.515Z" fill="#2F419F"/>
<path d="M133.757 128.553C133.757 127.198 134.391 126.793 135.442 126.793H135.91V124.931C134.935 124.931 134.201 125.4 133.757 126.122V125.033H131.984V132.049H133.757V128.553Z" fill="#2F419F"/>
<path d="M137.332 129.869C137.332 131.477 138.231 132.047 139.574 132.047H140.688V130.552H139.865C139.308 130.552 139.118 130.35 139.118 129.881V126.487H140.688V125.031H139.118V123.295H137.332V125.031H136.496V126.487H137.332V129.869Z" fill="#2F419F"/>
<mask id="mask10_3312_218" style="mask-type:luminance" maskUnits="userSpaceOnUse" x="48" y="72" width="163" height="164">
<path d="M48.207 72.6616H210.996V235.451H48.207V72.6616Z" fill="white"/>
</mask>
<g mask="url(#mask10_3312_218)">
<path d="M153.84 159.835C152.977 154.75 149.389 153.943 147.706 153.85C147.175 153.82 146.681 153.552 146.39 153.109C145.164 151.247 143.527 150.758 142.138 150.76C141.142 150.761 140.272 151.017 139.774 151.2C139.711 151.226 139.645 151.236 139.584 151.235C139.387 151.237 139.196 151.129 139.092 150.951C137.849 148.826 136.085 148.281 134.597 148.284C133.732 148.285 132.957 148.472 132.435 148.641C132.38 148.66 132.324 148.668 132.271 148.666C131.986 148.667 131.735 148.435 131.734 148.13L131.715 137.194C131.71 134.695 129.845 133.447 127.971 133.45C126.095 133.453 124.235 134.707 124.24 137.206L124.272 156.444C124.274 157.574 123.35 158.273 122.42 158.276C121.853 158.277 121.277 158.02 120.902 157.445L119.083 154.667C118.286 153.356 117.129 152.815 115.985 152.816C113.4 152.821 110.872 155.602 112.674 158.564L126.876 185.598C126.97 185.773 127.152 185.848 127.352 185.849C127.352 185.849 130.414 187.224 137.747 186.973C145.066 186.722 147.761 185.49 147.769 185.345L148.253 177.259C148.258 177.166 148.288 177.084 148.34 177.006C153.263 169.523 154.668 164.717 153.84 159.835Z" fill="#F5A623"/>
</g>
<mask id="mask11_3312_218" style="mask-type:luminance" maskUnits="userSpaceOnUse" x="142" y="117" width="21" height="21">
<path d="M142.703 117.55H162.615V137.462H142.703V117.55Z" fill="white"/>
</mask>
<g mask="url(#mask11_3312_218)">
<path d="M155.671 124.756L158.724 127.921L155.512 131.261" stroke="#3F51B5" stroke-width="1.59043" stroke-linecap="round" stroke-linejoin="round"/>
<g opacity="0.66">
<path d="M151.878 124.756L154.931 127.921L151.719 131.261" stroke="#3F51B5" stroke-width="1.59043" stroke-linecap="round" stroke-linejoin="round"/>
</g>
<g opacity="0.33">
<path d="M148.018 124.755L151.072 127.92L147.859 131.26" stroke="#3F51B5" stroke-width="1.59043" stroke-linecap="round" stroke-linejoin="round"/>
</g>
</g>
</svg>
